<svg xmlns="http://www.w3.org/2000/svg" viewBox="0 0 30 30"><path d="M7 4C5.346 4 4 5.346 4 7L4 23C4 24.654 5.346 26 7 26L23 26C24.654 26 26 24.654 26 23L26 7C26 5.346 24.654 4 23 4L7 4 z M 7 6L23 6C23.551 6 24 6.448 24 7L24 23C24 23.552 23.551 24 23 24L21 24L21 22L16 22L16 24L7 24C6.449 24 6 23.552 6 23L6 7C6 6.448 6.449 6 7 6 z M 15 9 A 2 2 0 0 0 13 11 A 2 2 0 0 0 15 13 A 2 2 0 0 0 17 11 A 2 2 0 0 0 15 9 z M 10.5 11 A 1.5 1.5 0 0 0 9 12.5 A 1.5 1.5 0 0 0 10.5 14 A 1.5 1.5 0 0 0 12 12.5 A 1.5 1.5 0 0 0 10.5 11 z M 19.5 11 A 1.5 1.5 0 0 0 18 12.5 A 1.5 1.5 0 0 0 19.5 14 A 1.5 1.5 0 0 0 21 12.5 A 1.5 1.5 0 0 0 19.5 11 z M 15 14C12.339 14 11.5 16.5 11.5 16.5C11.5 15.654 12 15 12 15C11.7 14.814 10.932406 14.6875 10.566406 14.6875C9.3534062 14.6885 8 15.875594 8 16.683594L8 19L22 19L22 16.683594C22 15.875594 20.483594 14.6875 19.433594 14.6875C19.067594 14.6875 18.3 14.814 18 15C18 15 18.5 15.654 18.5 16.5C18.5 16.5 17.661 14 15 14 z"/></svg>