<svg xmlns="http://www.w3.org/2000/svg" viewBox="0 0 48 48"><path d="M18.5 18h-8C8.019 18 6 15.981 6 13.5v-3C6 8.019 8.019 6 10.5 6h8c2.481 0 4.5 2.019 4.5 4.5v3C23 15.981 20.981 18 18.5 18zM18.5 42h-8C8.019 42 6 39.981 6 37.5v-13c0-2.481 2.019-4.5 4.5-4.5h8c2.481 0 4.5 2.019 4.5 4.5v13C23 39.981 20.981 42 18.5 42zM37.5 42h-8c-2.481 0-4.5-2.019-4.5-4.5v-3c0-2.481 2.019-4.5 4.5-4.5h8c2.481 0 4.5 2.019 4.5 4.5v3C42 39.981 39.981 42 37.5 42zM37.5 28h-8c-2.481 0-4.5-2.019-4.5-4.5v-13C25 8.019 27.019 6 29.5 6h8c2.481 0 4.5 2.019 4.5 4.5v13C42 25.981 39.981 28 37.5 28z"/></svg>