<svg xmlns="http://www.w3.org/2000/svg" viewBox="0 0 30 30"><path d="M5 3C3.897 3 3 3.897 3 5L3 25C3 26.103 3.897 27 5 27L19 27C20.103 27 21 26.103 21 25L21 16L13 16C12.448 16 12 15.552 12 15C12 14.448 12.448 14 13 14L21 14L21 5C21 3.897 20.103 3 19 3L5 3 z M 21 14L21 16L26.585938 16L24.292969 18.292969 A 1.0001 1.0001 0 1 0 25.707031 19.707031L29.707031 15.707031 A 1.0001 1.0001 0 0 0 29.707031 14.292969L25.707031 10.292969 A 1.0001 1.0001 0 0 0 24.990234 9.9902344 A 1.0001 1.0001 0 0 0 24.292969 11.707031L26.585938 14L21 14 z"/></svg>