<svg xmlns="http://www.w3.org/2000/svg" viewBox="0 0 32 32">
  <path d="M25.332031 3.4628906L9.2167969 9.2167969L4 23.826172L4 29L6 29L6 24.826172L9.9238281 24.066406L13.398438 27.541016C13.401444 27.544079 13.403207 27.547739 13.40625 27.550781L13.408203 27.550781C13.720684 27.862535 14.140547 27.983801 14.486328 27.998047C14.832522 28.012307 15.145666 27.948312 15.462891 27.849609C16.097344 27.652195 16.76641 27.30101 17.515625 26.824219C19.014054 25.870636 20.799819 24.401416 22.599609 22.601562C24.399399 20.80171 25.868736 19.014088 26.822266 17.515625C27.299031 16.766393 27.650264 16.09735 27.847656 15.462891C27.946356 15.145662 28.010368 14.834475 27.996094 14.488281C27.981831 14.1425 27.860592 13.722626 27.548828 13.410156C27.548456 13.409783 27.549201 13.408576 27.548828 13.408203L24.027344 9.8847656L25.332031 3.4628906 z M 22.666016 6.5371094L22.160156 9.0234375C21.950982 9.0462119 21.746753 9.0854295 21.542969 9.1484375C20.909852 9.344191 20.240568 9.6945206 19.492188 10.169922C17.995425 11.120724 16.208392 12.58797 14.398438 14.398438C12.588603 16.208783 11.12081 17.995632 10.169922 19.492188C9.6944777 20.240465 9.3442961 20.90994 9.1484375 21.542969C9.0811593 21.760417 9.0419923 21.978594 9.0214844 22.203125L6.53125 22.685547L10.783203 10.783203L22.666016 6.5371094 z M 22.333984 11.019531L24.738281 13.423828C24.327106 13.615445 23.902901 13.841076 23.441406 14.134766C21.942976 15.088349 20.157212 16.559522 18.357422 18.359375C16.557632 20.159228 15.088295 21.944896 14.134766 23.443359C13.841534 23.904169 13.615707 24.327257 13.423828 24.738281L11.019531 22.333984C11.025131 22.285734 11.022134 22.250644 11.058594 22.132812C11.165579 21.787029 11.439991 21.223379 11.857422 20.566406C12.692284 19.25246 14.087334 17.538154 15.8125 15.8125C17.537546 14.086966 19.250465 12.692119 20.564453 11.857422C21.221447 11.440073 21.78696 11.165528 22.132812 11.058594C22.250667 11.022154 22.2857 11.025151 22.333984 11.019531 z M 25.783203 15.177734C25.644124 15.522724 25.473745 15.913724 25.136719 16.443359C24.298843 17.760071 22.900417 19.472571 21.185547 21.1875C19.470677 22.902431 17.760041 24.298798 16.443359 25.136719C15.913735 25.473764 15.522718 25.644113 15.177734 25.783203C15.316782 25.438174 15.485096 25.047438 15.822266 24.517578C16.660141 23.200866 18.056614 21.488367 19.771484 19.773438C21.486354 18.058508 23.198942 16.660186 24.515625 15.822266C25.045473 15.485077 25.438178 15.316794 25.783203 15.177734 z" fill="#696CFF" />
</svg>