<svg xmlns="http://www.w3.org/2000/svg" viewBox="0 0 30 30">
  <path d="M14.984375 2.4863281 A 1.0001 1.0001 0 0 0 14 3.5L14 4L8.5 4 A 1.0001 1.0001 0 0 0 7.4863281 5L6 5 A 1.0001 1.0001 0 1 0 6 7L24 7 A 1.0001 1.0001 0 1 0 24 5L22.513672 5 A 1.0001 1.0001 0 0 0 21.5 4L16 4L16 3.5 A 1.0001 1.0001 0 0 0 14.984375 2.4863281 z M 6 9L7.7929688 24.234375C7.9109687 25.241375 8.7633438 26 9.7773438 26L20.222656 26C21.236656 26 22.088031 25.241375 22.207031 24.234375L24 9L6 9 z" fill="#FFFFFF" />
</svg>