<svg xmlns="http://www.w3.org/2000/svg" viewBox="0 0 50 50">
  <path d="M18.5 1C17.672 1 17 1.672 17 2.5L17 8.5C17 9.328 17.672 10 18.5 10L31.5 10C32.328 10 33 9.328 33 8.5L33 2.5C33 1.672 32.328 1 31.5 1L18.5 1 z M 9 3C7.346 3 6 4.346 6 6L6 44C6 45.654 7.346 47 9 47L41 47C42.158 47 43.164062 46.341906 43.664062 45.378906C43.878062 44.965906 44 44.496 44 44L44 6C44 4.346 42.654 3 41 3L35 3L35 8L39 8L39 42L11 42L11 8L15 8L15 3L9 3 z M 31.59375 17C30.977875 17.000125 30.362578 17.235578 29.892578 17.705078L28.998047 18.597656L32.402344 22.001953C32.399344 22.003953 33.294922 21.107422 33.294922 21.107422C34.234922 20.167422 34.235875 18.644078 33.296875 17.705078C32.826375 17.235078 32.209625 16.999875 31.59375 17 z M 27.587891 20.003906L16.707031 30.90625L16.021484 34.414062C15.953484 34.762062 16.260375 35.069953 16.609375 35.001953L20.117188 34.314453L30.996094 23.412109L27.587891 20.003906 z" fill="#FFFFFF" />
</svg>