<svg xmlns="http://www.w3.org/2000/svg" viewBox="0 0 128 128">
  <path d="M24 1C16.8 1 11 6.8 11 14L11 114C11 121.2 16.8 127 24 127C75.3 127 117 85.3 117 34L117 14C117 6.8 111.2 1 104 1L24 1 z M 24 7L104 7C107.9 7 111 10.1 111 14L111 34C111 82 72 121 24 121C20.1 121 17 117.9 17 114L17 14C17 10.1 20.1 7 24 7 z M 49 31C47.3 31 46 32.3 46 34C46 35.7 47.3 37 49 37L79 37C80.7 37 82 35.7 82 34C82 32.3 80.7 31 79 31L49 31 z M 39 61C37.3 61 36 62.3 36 64C36 65.7 37.3 67 39 67L89 67C90.7 67 92 65.7 92 64C92 62.3 90.7 61 89 61L39 61 z M 39 81C37.3 81 36 82.3 36 84C36 85.7 37.3 87 39 87L79 87C80.7 87 82 85.7 82 84C82 82.3 80.7 81 79 81L39 81 z M 114 84C112.3 84 111 85.3 111 87L111 114C111 117.9 107.9 121 104 121L74 121C72.3 121 71 122.3 71 124C71 125.7 72.3 127 74 127L104 127C111.2 127 117 121.2 117 114L117 87C117 85.3 115.7 84 114 84 z" fill="#FFFFFF" />
</svg>